<svg width="194" height="22" viewBox="0 0 194 22" fill="none" xmlns="http://www.w3.org/2000/svg">
<path d="M22.3242 21H18.7148V5.61914L13.0137 17.5547H10.1016L4.42773 5.6875V21H0.818359V0.492188H5.41211L11.5645 13.6035L17.7031 0.492188H22.3242V21ZM29.9746 21V0.492188H42.9766V3.66406H33.584V9.06445H42.4297V12.2227H33.584V17.8281H43.1133V21H29.9746ZM58.9941 21H55.3848V3.66406H49.1504V0.492188H65.2148V3.66406H58.9941V21ZM86.1406 21H70.5957V18.3066L81.2461 3.66406H71.1426V0.492188H85.9629V3.32227L75.4082 17.8281H86.1406V21ZM96.6074 0.492188V21H92.998V0.492188H96.6074ZM122.619 21H118.545L107.854 6.08398V21H104.244V0.492188H108.318L119.01 15.4219V0.492188H122.619V21ZM145.309 5.26367C144.661 4.61654 143.887 4.11979 142.984 3.77344C142.091 3.42708 141.139 3.25391 140.127 3.25391C139.097 3.25391 138.154 3.43164 137.297 3.78711C136.449 4.14258 135.715 4.65299 135.096 5.31836C134.476 5.97461 133.997 6.75846 133.66 7.66992C133.323 8.57227 133.154 9.57487 133.154 10.6777C133.154 11.7897 133.323 12.8105 133.66 13.7402C134.007 14.6608 134.49 15.4583 135.109 16.1328C135.738 16.8073 136.481 17.3268 137.338 17.6914C138.195 18.056 139.138 18.2383 140.168 18.2383C141.061 18.2383 141.882 18.1016 142.629 17.8281C143.376 17.5456 144.033 17.1445 144.598 16.625C145.172 16.0964 145.641 15.4629 146.006 14.7246C146.37 13.9863 146.612 13.166 146.73 12.2637H140.25V9.47461H149.916L150.012 10.8418C150.012 12.4004 149.77 13.8268 149.287 15.1211C148.813 16.4062 148.134 17.5228 147.25 18.4707C146.366 19.4095 145.318 20.1341 144.105 20.6445C142.893 21.1549 141.553 21.4102 140.086 21.4102C138.573 21.4102 137.169 21.1413 135.875 20.6035C134.59 20.0658 133.464 19.3184 132.498 18.3613C131.541 17.3952 130.794 16.265 130.256 14.9707C129.727 13.6764 129.463 12.2682 129.463 10.7461C129.463 9.23307 129.727 7.82943 130.256 6.53516C130.794 5.23177 131.536 4.09701 132.484 3.13086C133.441 2.16471 134.562 1.41732 135.848 0.888672C137.142 0.350911 138.541 0.0820312 140.045 0.0820312C141.476 0.0820312 142.843 0.328125 144.146 0.820312C145.459 1.3125 146.63 2.01888 147.66 2.93945L145.309 5.26367ZM156.869 21V0.492188H169.871V3.66406H160.479V9.06445H169.324V12.2227H160.479V17.8281H170.008V21H156.869ZM193.518 21H189.512L185.014 13.2891H181.131V21H177.521V0.492188H185.082C186.677 0.492188 188.04 0.747396 189.17 1.25781C190.3 1.76823 191.171 2.50195 191.781 3.45898C192.392 4.4069 192.697 5.55078 192.697 6.89062C192.697 8.3125 192.346 9.52018 191.645 10.5137C190.943 11.498 189.949 12.2181 188.664 12.6738L193.518 21ZM181.131 10.3359H184.822C186.144 10.3359 187.169 10.0443 187.898 9.46094C188.637 8.8776 189.006 8.05729 189.006 7C189.006 5.94271 188.641 5.1224 187.912 4.53906C187.183 3.95573 186.153 3.66406 184.822 3.66406H181.131V10.3359Z" fill="white"/>
</svg>
